<svg xmlns="http://www.w3.org/2000/svg" xmlns:xlink="http://www.w3.org/1999/xlink" width="2000" zoomAndPan="magnify" viewBox="0 0 1500 1499.999933" height="2000" preserveAspectRatio="xMidYMid meet" version="1.0"><defs><g/><clipPath id="c355da8097"><rect x="0" width="852" y="0" height="1144"/></clipPath><clipPath id="fc57025676"><rect x="0" width="1328" y="0" height="366"/></clipPath><clipPath id="4b8d342a9a"><rect x="0" width="800" y="0" height="1144"/></clipPath></defs><rect x="-150" width="1800" fill="#ffffff" y="-149.999993" height="1799.99992" fill-opacity="1"/><rect x="-150" width="1800" fill="#ffffff" y="-149.999993" height="1799.99992" fill-opacity="1"/><g transform="matrix(1, 0, 0, 1, 3, 42)"><g clip-path="url(#c355da8097)"><g fill="#000000" fill-opacity="1"><g transform="translate(0.182251, 903.724469)"><g><path d="M 154.71875 0 C 139.695312 0 127.234375 -4.953125 117.328125 -14.859375 C 107.421875 -24.765625 102.46875 -37.570312 102.46875 -53.28125 L 102.46875 -746.984375 C 102.46875 -762.691406 107.421875 -775.5 117.328125 -785.40625 C 127.234375 -795.3125 139.695312 -800.265625 154.71875 -800.265625 C 162.238281 -800.265625 169.753906 -798.382812 177.265625 -794.625 C 184.785156 -790.875 190.9375 -786.265625 195.71875 -780.796875 L 642.46875 -186.484375 L 642.46875 -746.984375 C 642.46875 -762.691406 647.585938 -775.5 657.828125 -785.40625 C 668.078125 -795.3125 680.71875 -800.265625 695.75 -800.265625 C 710.78125 -800.265625 723.25 -795.3125 733.15625 -785.40625 C 743.0625 -775.5 748.015625 -762.691406 748.015625 -746.984375 L 748.015625 -53.28125 C 748.015625 -37.570312 743.0625 -24.765625 733.15625 -14.859375 C 723.25 -4.953125 710.78125 0 695.75 0 C 688.238281 0 680.550781 -1.535156 672.6875 -4.609375 C 664.832031 -7.679688 658.859375 -12.289062 654.765625 -18.4375 L 208.015625 -612.75 L 208.015625 -53.28125 C 208.015625 -38.25 203.0625 -25.609375 193.15625 -15.359375 C 183.25 -5.117188 170.4375 0 154.71875 0 Z M 154.71875 0 "/></g></g></g></g></g><g transform="matrix(1, 0, 0, 1, 85, 1122)"><g clip-path="url(#fc57025676)"><g fill="#000000" fill-opacity="1"><g transform="translate(3.30669, 285.995562)"><g><path d="M 276.96875 -256.59375 C 280.46875 -256.59375 283.421875 -255.382812 285.828125 -252.96875 C 288.242188 -250.5625 289.453125 -247.5 289.453125 -243.78125 L 289.453125 -12.8125 C 289.453125 -9.3125 288.242188 -6.300781 285.828125 -3.78125 C 283.421875 -1.257812 280.46875 0 276.96875 0 C 273.238281 0 270.113281 -1.257812 267.59375 -3.78125 C 265.082031 -6.300781 263.828125 -9.3125 263.828125 -12.8125 L 263.828125 -198.765625 L 172.484375 -12.15625 C 169.859375 -7.988281 166.132812 -5.90625 161.3125 -5.90625 C 155.84375 -5.90625 151.898438 -8.535156 149.484375 -13.796875 L 58.484375 -195.8125 L 58.484375 -12.8125 C 58.484375 -9.3125 57.273438 -6.300781 54.859375 -3.78125 C 52.453125 -1.257812 49.390625 0 45.671875 0 C 42.160156 0 39.144531 -1.257812 36.625 -3.78125 C 34.113281 -6.300781 32.859375 -9.3125 32.859375 -12.8125 L 32.859375 -243.78125 C 32.859375 -247.5 34.113281 -250.5625 36.625 -252.96875 C 39.144531 -255.382812 42.160156 -256.59375 45.671875 -256.59375 C 50.703125 -256.59375 54.535156 -254.40625 57.171875 -250.03125 L 162.296875 -41.0625 L 265.46875 -250.03125 C 268.09375 -254.40625 271.925781 -256.59375 276.96875 -256.59375 Z M 276.96875 -256.59375 "/></g></g></g><g fill="#000000" fill-opacity="1"><g transform="translate(325.599769, 285.995562)"><g><path d="M 111.375 -181.359375 C 128.457031 -181.359375 143.953125 -177.359375 157.859375 -169.359375 C 171.773438 -161.367188 182.726562 -150.363281 190.71875 -136.34375 C 198.71875 -122.320312 202.71875 -106.769531 202.71875 -89.6875 L 202.71875 -12.484375 C 202.71875 -8.984375 201.507812 -6.023438 199.09375 -3.609375 C 196.6875 -1.203125 193.625 0 189.90625 0 C 186.175781 0 183.109375 -1.148438 180.703125 -3.453125 C 178.296875 -5.753906 177.09375 -8.765625 177.09375 -12.484375 L 177.09375 -32.203125 C 169.425781 -21.679688 159.675781 -13.410156 147.84375 -7.390625 C 136.019531 -1.367188 122.988281 1.640625 108.75 1.640625 C 92.101562 1.640625 77.046875 -2.351562 63.578125 -10.34375 C 50.109375 -18.34375 39.484375 -29.296875 31.703125 -43.203125 C 23.929688 -57.109375 20.046875 -72.601562 20.046875 -89.6875 C 20.046875 -106.769531 24.039062 -122.320312 32.03125 -136.34375 C 40.03125 -150.363281 50.984375 -161.367188 64.890625 -169.359375 C 78.796875 -177.359375 94.289062 -181.359375 111.375 -181.359375 Z M 111.375 -21.359375 C 123.863281 -21.359375 135.144531 -24.3125 145.21875 -30.21875 C 155.289062 -36.132812 163.226562 -44.296875 169.03125 -54.703125 C 174.84375 -65.109375 177.75 -76.769531 177.75 -89.6875 C 177.75 -102.613281 174.84375 -114.28125 169.03125 -124.6875 C 163.226562 -135.09375 155.289062 -143.304688 145.21875 -149.328125 C 135.144531 -155.347656 123.863281 -158.359375 111.375 -158.359375 C 98.894531 -158.359375 87.5625 -155.347656 77.375 -149.328125 C 67.1875 -143.304688 59.191406 -135.09375 53.390625 -124.6875 C 47.585938 -114.28125 44.6875 -102.613281 44.6875 -89.6875 C 44.6875 -76.769531 47.585938 -65.109375 53.390625 -54.703125 C 59.191406 -44.296875 67.1875 -36.132812 77.375 -30.21875 C 87.5625 -24.3125 98.894531 -21.359375 111.375 -21.359375 Z M 111.375 -21.359375 "/></g></g></g><g fill="#000000" fill-opacity="1"><g transform="translate(548.018117, 285.995562)"><g><path d="M 111.375 -181.359375 C 128.894531 -181.359375 144.554688 -177.46875 158.359375 -169.6875 C 172.160156 -161.914062 183.003906 -151.078125 190.890625 -137.171875 C 198.773438 -123.265625 202.71875 -107.4375 202.71875 -89.6875 L 202.71875 -22.671875 C 202.71875 -5.148438 198.828125 10.726562 191.046875 24.96875 C 183.273438 39.207031 172.488281 50.429688 158.6875 58.640625 C 144.882812 66.859375 129.332031 70.96875 112.03125 70.96875 C 95.164062 70.96875 80.160156 67.789062 67.015625 61.4375 C 53.878906 55.082031 42.820312 46.210938 33.84375 34.828125 C 31.875 32.640625 30.890625 30.117188 30.890625 27.265625 C 30.890625 23.984375 32.421875 21.140625 35.484375 18.734375 C 37.671875 17.191406 40.082031 16.421875 42.71875 16.421875 C 44.6875 16.421875 46.65625 16.914062 48.625 17.90625 C 50.59375 18.894531 52.125 20.15625 53.21875 21.6875 C 59.789062 30.007812 68.113281 36.46875 78.1875 41.0625 C 88.269531 45.664062 99.660156 47.96875 112.359375 47.96875 C 124.628906 47.96875 135.742188 44.953125 145.703125 38.921875 C 155.671875 32.898438 163.503906 24.46875 169.203125 13.625 C 174.898438 2.789062 177.75 -9.632812 177.75 -23.65625 L 177.75 -38.4375 C 171.175781 -25.957031 161.863281 -16.15625 149.8125 -9.03125 C 137.769531 -1.914062 124.082031 1.640625 108.75 1.640625 C 91.664062 1.640625 76.390625 -2.242188 62.921875 -10.015625 C 49.453125 -17.796875 38.9375 -28.640625 31.375 -42.546875 C 23.820312 -56.453125 20.046875 -72.164062 20.046875 -89.6875 C 20.046875 -107.4375 23.988281 -123.265625 31.875 -137.171875 C 39.757812 -151.078125 50.65625 -161.914062 64.5625 -169.6875 C 78.46875 -177.46875 94.070312 -181.359375 111.375 -181.359375 Z M 111.375 -21.359375 C 124.082031 -21.359375 135.472656 -24.257812 145.546875 -30.0625 C 155.617188 -35.863281 163.503906 -43.96875 169.203125 -54.375 C 174.898438 -64.78125 177.75 -76.550781 177.75 -89.6875 C 177.75 -102.832031 174.898438 -114.609375 169.203125 -125.015625 C 163.503906 -135.421875 155.617188 -143.578125 145.546875 -149.484375 C 135.472656 -155.398438 124.082031 -158.359375 111.375 -158.359375 C 98.457031 -158.359375 86.957031 -155.398438 76.875 -149.484375 C 66.800781 -143.578125 58.914062 -135.421875 53.21875 -125.015625 C 47.53125 -114.609375 44.6875 -102.832031 44.6875 -89.6875 C 44.6875 -76.550781 47.53125 -64.78125 53.21875 -54.375 C 58.914062 -43.96875 66.800781 -35.863281 76.875 -30.0625 C 86.957031 -24.257812 98.457031 -21.359375 111.375 -21.359375 Z M 111.375 -21.359375 "/></g></g></g><g fill="#000000" fill-opacity="1"><g transform="translate(770.436465, 285.995562)"><g><path d="M 114.65625 -181.6875 C 130.207031 -181.6875 144.171875 -178.398438 156.546875 -171.828125 C 168.921875 -165.253906 178.613281 -155.671875 185.625 -143.078125 C 192.632812 -130.484375 196.140625 -115.425781 196.140625 -97.90625 L 196.140625 -12.484375 C 196.140625 -8.984375 194.9375 -6.023438 192.53125 -3.609375 C 190.125 -1.203125 187.164062 0 183.65625 0 C 179.9375 0 176.867188 -1.203125 174.453125 -3.609375 C 172.046875 -6.023438 170.84375 -8.984375 170.84375 -12.484375 L 170.84375 -97.90625 C 170.84375 -117.394531 165.421875 -132.234375 154.578125 -142.421875 C 143.734375 -152.609375 129.550781 -157.703125 112.03125 -157.703125 C 101.300781 -157.703125 91.609375 -155.617188 82.953125 -151.453125 C 74.304688 -147.296875 67.460938 -141.546875 62.421875 -134.203125 C 57.390625 -126.867188 54.875 -118.710938 54.875 -109.734375 L 54.875 -12.484375 C 54.875 -8.765625 53.722656 -5.753906 51.421875 -3.453125 C 49.117188 -1.148438 46.101562 0 42.375 0 C 38.65625 0 35.585938 -1.148438 33.171875 -3.453125 C 30.765625 -5.753906 29.5625 -8.765625 29.5625 -12.484375 L 29.5625 -166.90625 C 29.5625 -170.625 30.765625 -173.6875 33.171875 -176.09375 C 35.585938 -178.507812 38.65625 -179.71875 42.375 -179.71875 C 46.101562 -179.71875 49.117188 -178.507812 51.421875 -176.09375 C 53.722656 -173.6875 54.875 -170.625 54.875 -166.90625 L 54.875 -155.734375 C 62.09375 -163.835938 70.847656 -170.1875 81.140625 -174.78125 C 91.441406 -179.382812 102.613281 -181.6875 114.65625 -181.6875 Z M 114.65625 -181.6875 "/></g></g></g><g fill="#000000" fill-opacity="1"><g transform="translate(992.854813, 285.995562)"><g><path d="M 106.125 -181.359375 C 122.332031 -181.359375 136.675781 -177.578125 149.15625 -170.015625 C 161.644531 -162.460938 171.335938 -152.003906 178.234375 -138.640625 C 185.128906 -125.285156 188.578125 -110.066406 188.578125 -92.984375 C 188.578125 -89.472656 187.484375 -86.675781 185.296875 -84.59375 C 183.109375 -82.519531 180.265625 -81.484375 176.765625 -81.484375 L 44.03125 -81.484375 C 45.78125 -63.515625 52.785156 -48.945312 65.046875 -37.78125 C 77.316406 -26.613281 92.648438 -21.03125 111.046875 -21.03125 C 118.929688 -21.03125 126.867188 -22.394531 134.859375 -25.125 C 142.859375 -27.863281 149.269531 -31.316406 154.09375 -35.484375 C 156.9375 -37.671875 159.890625 -38.765625 162.953125 -38.765625 C 165.367188 -38.765625 167.78125 -37.890625 170.1875 -36.140625 C 173.03125 -33.515625 174.453125 -30.554688 174.453125 -27.265625 C 174.453125 -24.421875 173.25 -21.90625 170.84375 -19.71875 C 163.613281 -13.582031 154.410156 -8.488281 143.234375 -4.4375 C 132.066406 -0.382812 121.335938 1.640625 111.046875 1.640625 C 93.523438 1.640625 77.863281 -2.242188 64.0625 -10.015625 C 50.269531 -17.796875 39.484375 -28.640625 31.703125 -42.546875 C 23.929688 -56.453125 20.046875 -72.164062 20.046875 -89.6875 C 20.046875 -107.4375 23.710938 -123.265625 31.046875 -137.171875 C 38.378906 -151.078125 48.5625 -161.914062 61.59375 -169.6875 C 74.632812 -177.46875 89.476562 -181.359375 106.125 -181.359375 Z M 106.125 -158.6875 C 89.476562 -158.6875 75.675781 -153.539062 64.71875 -143.25 C 53.769531 -132.957031 47.09375 -119.375 44.6875 -102.5 L 164.9375 -102.5 C 163.175781 -119.375 157.039062 -132.957031 146.53125 -143.25 C 136.019531 -153.539062 122.550781 -158.6875 106.125 -158.6875 Z M 106.125 -158.6875 "/></g></g></g><g fill="#000000" fill-opacity="1"><g transform="translate(1194.575511, 285.995562)"><g><path d="M 108.75 -25.296875 C 112.25 -25.296875 115.09375 -24.085938 117.28125 -21.671875 C 119.476562 -19.265625 120.578125 -16.203125 120.578125 -12.484375 C 120.578125 -8.984375 119.257812 -6.023438 116.625 -3.609375 C 114 -1.203125 110.71875 0 106.78125 0 L 99.875 0 C 88.269531 0 77.867188 -2.789062 68.671875 -8.375 C 59.472656 -13.957031 52.296875 -21.515625 47.140625 -31.046875 C 41.992188 -40.578125 39.421875 -51.363281 39.421875 -63.40625 L 39.421875 -151.125 L 18.0625 -151.125 C 14.5625 -151.125 11.769531 -152.164062 9.6875 -154.25 C 7.613281 -156.332031 6.578125 -158.90625 6.578125 -161.96875 C 6.578125 -165.257812 7.613281 -167.941406 9.6875 -170.015625 C 11.769531 -172.097656 14.5625 -173.140625 18.0625 -173.140625 L 39.421875 -173.140625 L 39.421875 -224.0625 C 39.421875 -227.789062 40.570312 -230.859375 42.875 -233.265625 C 45.175781 -235.671875 48.1875 -236.875 51.90625 -236.875 C 55.632812 -236.875 58.703125 -235.671875 61.109375 -233.265625 C 63.515625 -230.859375 64.71875 -227.789062 64.71875 -224.0625 L 64.71875 -173.140625 L 101.84375 -173.140625 C 105.351562 -173.140625 108.144531 -172.097656 110.21875 -170.015625 C 112.300781 -167.941406 113.34375 -165.257812 113.34375 -161.96875 C 113.34375 -158.90625 112.300781 -156.332031 110.21875 -154.25 C 108.144531 -152.164062 105.351562 -151.125 101.84375 -151.125 L 64.71875 -151.125 L 64.71875 -63.40625 C 64.71875 -52.238281 68.003906 -43.09375 74.578125 -35.96875 C 81.148438 -28.851562 89.582031 -25.296875 99.875 -25.296875 Z M 108.75 -25.296875 "/></g></g></g></g></g><g transform="matrix(1, 0, 0, 1, 584, 42)"><g clip-path="url(#4b8d342a9a)"><g fill="#000000" fill-opacity="1"><g transform="translate(0.882737, 903.724469)"><g><path d="M 676.28125 -414.984375 C 691.3125 -414.984375 703.78125 -410.03125 713.6875 -400.125 C 723.59375 -390.226562 728.546875 -377.421875 728.546875 -361.703125 L 728.546875 -116.8125 C 728.546875 -100.414062 723.078125 -87.78125 712.140625 -78.90625 C 640.421875 -19.46875 556.742188 10.25 461.109375 10.25 C 388.015625 10.25 321.238281 -7.851562 260.78125 -44.0625 C 200.320312 -80.269531 152.671875 -129.796875 117.828125 -192.640625 C 82.992188 -255.484375 65.578125 -324.816406 65.578125 -400.640625 C 65.578125 -475.785156 82.992188 -544.609375 117.828125 -607.109375 C 152.671875 -669.617188 200.320312 -719.144531 260.78125 -755.6875 C 321.238281 -792.238281 388.015625 -810.515625 461.109375 -810.515625 C 513.023438 -810.515625 557.9375 -803.679688 595.84375 -790.015625 C 633.757812 -776.359375 672.1875 -753.816406 711.125 -722.390625 C 719.320312 -716.242188 724.785156 -709.925781 727.515625 -703.4375 C 730.242188 -696.945312 731.609375 -689.257812 731.609375 -680.375 C 731.609375 -666.71875 726.65625 -655.445312 716.75 -646.5625 C 706.851562 -637.6875 695.070312 -633.25 681.40625 -633.25 C 669.113281 -633.25 657.5 -637.6875 646.5625 -646.5625 C 618.5625 -670.476562 591.238281 -687.726562 564.59375 -698.3125 C 537.945312 -708.90625 503.453125 -714.203125 461.109375 -714.203125 C 407.816406 -714.203125 358.800781 -700.195312 314.0625 -672.1875 C 269.320312 -644.175781 233.800781 -606.085938 207.5 -557.921875 C 181.195312 -509.765625 168.046875 -457.335938 168.046875 -400.640625 C 168.046875 -343.265625 181.195312 -290.664062 207.5 -242.84375 C 233.800781 -195.03125 269.320312 -157.117188 314.0625 -129.109375 C 358.800781 -101.097656 407.816406 -87.09375 461.109375 -87.09375 C 518.484375 -87.09375 573.472656 -104.171875 626.078125 -138.328125 L 626.078125 -320.71875 L 484.671875 -320.71875 C 468.960938 -320.71875 456.15625 -325.15625 446.25 -334.03125 C 436.34375 -342.914062 431.390625 -354.191406 431.390625 -367.859375 C 431.390625 -381.515625 436.34375 -392.78125 446.25 -401.65625 C 456.15625 -410.539062 468.960938 -414.984375 484.671875 -414.984375 Z M 676.28125 -414.984375 "/></g></g></g></g></g></svg>